<mxfile host="app.diagrams.net" agent="Mozilla/5.0 (Macintosh; Intel Mac OS X 10_15_7) AppleWebKit/537.36 (KHTML, like Gecko) Chrome/130.0.0.0 Safari/537.36" version="25.0.3">
  <diagram name="Page-1" id="N03e8LT8n8_ULFQBlcIP">
    <mxGraphModel dx="1283" dy="855" grid="1" gridSize="10" guides="1" tooltips="1" connect="1" arrows="1" fold="1" page="1" pageScale="1" pageWidth="827" pageHeight="1169" math="0" shadow="0">
      <root>
        <mxCell id="0" />
        <mxCell id="1" parent="0" />
        <mxCell id="WDJzYzP4yP0xUvmbiuHr-1" value="" style="whiteSpace=wrap;html=1;aspect=fixed;" vertex="1" parent="1">
          <mxGeometry width="820" height="820" as="geometry" />
        </mxCell>
        <mxCell id="WDJzYzP4yP0xUvmbiuHr-2" value="" style="shape=folder;fontStyle=1;spacingTop=10;tabWidth=40;tabHeight=14;tabPosition=left;html=1;whiteSpace=wrap;fillColor=#dae8fc;strokeColor=#6c8ebf;" vertex="1" parent="1">
          <mxGeometry x="15" y="30" width="780" height="200" as="geometry" />
        </mxCell>
        <mxCell id="WDJzYzP4yP0xUvmbiuHr-5" value="Database Subsystem" style="text;align=center;fontStyle=1;verticalAlign=middle;spacingLeft=3;spacingRight=3;strokeColor=none;rotatable=0;points=[[0,0.5],[1,0.5]];portConstraint=eastwest;html=1;" vertex="1" parent="1">
          <mxGeometry x="260" y="50" width="260" height="26" as="geometry" />
        </mxCell>
        <mxCell id="WDJzYzP4yP0xUvmbiuHr-6" value="«Annotation»&lt;br&gt;&lt;b&gt;User Database&lt;/b&gt;" style="html=1;dropTarget=0;whiteSpace=wrap;fontFamily=Times New Roman;spacing=2;" vertex="1" parent="1">
          <mxGeometry x="80" y="105" width="130" height="70" as="geometry" />
        </mxCell>
        <mxCell id="WDJzYzP4yP0xUvmbiuHr-7" value="" style="shape=module;jettyWidth=8;jettyHeight=4;fontFamily=Times New Roman;spacing=2;" vertex="1" parent="WDJzYzP4yP0xUvmbiuHr-6">
          <mxGeometry x="1" width="20" height="20" relative="1" as="geometry">
            <mxPoint x="-27" y="7" as="offset" />
          </mxGeometry>
        </mxCell>
        <mxCell id="WDJzYzP4yP0xUvmbiuHr-8" value="«Annotation»&lt;br&gt;&lt;b&gt;Room Database&lt;/b&gt;" style="html=1;dropTarget=0;whiteSpace=wrap;fontFamily=Times New Roman;spacing=2;" vertex="1" parent="1">
          <mxGeometry x="330" y="105" width="130" height="70" as="geometry" />
        </mxCell>
        <mxCell id="WDJzYzP4yP0xUvmbiuHr-9" value="" style="shape=module;jettyWidth=8;jettyHeight=4;fontFamily=Times New Roman;spacing=2;" vertex="1" parent="WDJzYzP4yP0xUvmbiuHr-8">
          <mxGeometry x="1" width="20" height="20" relative="1" as="geometry">
            <mxPoint x="-27" y="7" as="offset" />
          </mxGeometry>
        </mxCell>
        <mxCell id="WDJzYzP4yP0xUvmbiuHr-10" value="«Annotation»&lt;br&gt;&lt;b&gt;Availability Status Database&amp;nbsp;&lt;/b&gt;" style="html=1;dropTarget=0;whiteSpace=wrap;fontFamily=Times New Roman;spacing=2;" vertex="1" parent="1">
          <mxGeometry x="570" y="105" width="130" height="70" as="geometry" />
        </mxCell>
        <mxCell id="WDJzYzP4yP0xUvmbiuHr-11" value="" style="shape=module;jettyWidth=8;jettyHeight=4;fontFamily=Times New Roman;spacing=2;" vertex="1" parent="WDJzYzP4yP0xUvmbiuHr-10">
          <mxGeometry x="1" width="20" height="20" relative="1" as="geometry">
            <mxPoint x="-27" y="7" as="offset" />
          </mxGeometry>
        </mxCell>
      </root>
    </mxGraphModel>
  </diagram>
</mxfile>
